Format                           : AVI
Format/Info                      : Audio Video Interleave
File size                        : 888 MiB
Duration                         : 2h 42mn
Overall bit rate                 : 762 Kbps

Video
ID                               : 0
Format                           : MPEG-4 Visual
Format profile                   : Simple@L1
Format settings, BVOP            : No
Format settings, QPel            : No
Format settings, GMC             : No warppoints
Format settings, Matrix          : Default (H.263)
Codec ID                         : DX50
Codec ID/Hint                    : DivX 5
Duration                         : 2h 42mn
Bit rate                         : 628 Kbps
Width                            : 640 pixels
Height                           : 320 pixels
Display aspect ratio             : 2.000
Frame rate                       : 23.976 fps
Resolution                       : 8 bits
Colorimetry                      : 4:2:0
Scan type                        : Progressive
Bits/(Pixel*Frame)               : 0.128
Stream size                      : 732 MiB (82%)
Writing library                  : Lavc51.40.4

Audio
ID                               : 1
Format                           : AC-3
Format/Info                      : Audio Coding 3
Codec ID                         : 2000
Duration                         : 2h 36mn
Bit rate mode                    : Constant
Bit rate                         : 128 Kbps
Channel(s)                       : 3 channels
Channel positions                : L C R
Sampling rate                    : 48.0 KHz
Resolution                       : 16 bits
Stream size                      : 144 MiB (16%)
Alignment                        : Aligned on interleaves
Interleave, duration             : 33 ms (0.80 video frame)